<svg width="19" height="12" viewBox="0 0 19 12" fill="none" xmlns="http://www.w3.org/2000/svg">
<path fill-rule="evenodd" clip-rule="evenodd" d="M18.3344 5.79245C18.3344 5.62669 18.2685 5.46772 18.1513 5.35051C18.0341 5.23329 17.8751 5.16745 17.7094 5.16745H2.96812L6.90187 1.23495C6.95998 1.17684 7.00607 1.10785 7.03752 1.03193C7.06897 0.956001 7.08516 0.874626 7.08516 0.792446C7.08516 0.710266 7.06897 0.628891 7.03752 0.552967C7.00607 0.477042 6.95998 0.408056 6.90187 0.349946C6.84376 0.291836 6.77477 0.245741 6.69885 0.214292C6.62292 0.182843 6.54155 0.166656 6.45937 0.166656C6.37719 0.166656 6.29581 0.182843 6.21989 0.214292C6.14396 0.245741 6.07498 0.291836 6.01687 0.349946L1.01687 5.34995C0.958665 5.408 0.912487 5.47697 0.880979 5.5529C0.84947 5.62884 0.833252 5.71024 0.833252 5.79245C0.833252 5.87466 0.84947 5.95606 0.880979 6.03199C0.912487 6.10792 0.958665 6.17689 1.01687 6.23495L6.01687 11.2349C6.07498 11.2931 6.14396 11.3392 6.21989 11.3706C6.29581 11.4021 6.37719 11.4182 6.45937 11.4182C6.54155 11.4182 6.62292 11.4021 6.69885 11.3706C6.77477 11.3392 6.84376 11.2931 6.90187 11.2349C6.95998 11.1768 7.00607 11.1079 7.03752 11.0319C7.06897 10.956 7.08516 10.8746 7.08516 10.7924C7.08516 10.7103 7.06897 10.6289 7.03752 10.553C7.00607 10.477 6.95998 10.4081 6.90187 10.3499L2.96812 6.41745H17.7094C17.8751 6.41745 18.0341 6.3516 18.1513 6.23439C18.2685 6.11718 18.3344 5.95821 18.3344 5.79245Z" fill="white"/>
</svg>
