<svg width="22" height="14" viewBox="0 0 22 14" fill="none" xmlns="http://www.w3.org/2000/svg">
<path fill-rule="evenodd" clip-rule="evenodd" d="M0.399902 6.75095C0.399902 6.55203 0.47892 6.36127 0.619572 6.22062C0.760224 6.07997 0.95099 6.00095 1.1499 6.00095H18.8394L14.1189 1.28195C13.9781 1.14112 13.899 0.950111 13.899 0.750947C13.899 0.551784 13.9781 0.360777 14.1189 0.219947C14.2597 0.0791173 14.4507 4.69246e-09 14.6499 0C14.8491 -4.69246e-09 15.0401 0.0791173 15.1809 0.219947L21.1809 6.21995C21.2507 6.28962 21.3062 6.37238 21.344 6.4635C21.3818 6.55462 21.4012 6.6523 21.4012 6.75095C21.4012 6.8496 21.3818 6.94728 21.344 7.0384C21.3062 7.12951 21.2507 7.21228 21.1809 7.28195L15.1809 13.2819C15.0401 13.4228 14.8491 13.5019 14.6499 13.5019C14.4507 13.5019 14.2597 13.4228 14.1189 13.2819C13.9781 13.1411 13.899 12.9501 13.899 12.7509C13.899 12.5518 13.9781 12.3608 14.1189 12.2199L18.8394 7.50095H1.1499C0.95099 7.50095 0.760224 7.42193 0.619572 7.28128C0.47892 7.14063 0.399902 6.94986 0.399902 6.75095Z" fill="white"/>
</svg>
