<svg width="24" height="24" viewBox="0 0 24 24" fill="none" xmlns="http://www.w3.org/2000/svg">
<path d="M6.05291 15.2947C8.03304 17.6527 10.4167 19.5093 13.1373 20.823C14.1731 21.3121 15.5583 21.8923 17.1017 21.9917C17.1974 21.9959 17.2889 22 17.3846 22C18.4204 22 19.2524 21.6436 19.9304 20.9101C19.9346 20.9059 19.9429 20.8976 19.9471 20.8893C20.1883 20.5993 20.4629 20.3382 20.7499 20.0605C20.9455 19.874 21.1451 19.6792 21.3365 19.4803C22.2226 18.5603 22.2226 17.3916 21.3282 16.5006L18.828 14.0099C18.4037 13.5707 17.8962 13.3386 17.3638 13.3386C16.8313 13.3386 16.3196 13.5707 15.8828 14.0058L14.3936 15.4894C14.2563 15.4107 14.1149 15.3402 13.9817 15.2739C13.8153 15.191 13.6614 15.1123 13.5241 15.0253C12.168 14.1674 10.9367 13.0485 9.75941 11.6104C9.16454 10.8603 8.76518 10.2304 8.48647 9.58807C8.8775 9.23581 9.24358 8.86697 9.59717 8.50642C9.72197 8.37795 9.85092 8.24948 9.97988 8.12101C10.4292 7.67344 10.6704 7.15541 10.6704 6.62909C10.6704 6.10278 10.4333 5.58475 9.97988 5.13717L8.74022 3.9022C8.59463 3.75715 8.45735 3.61625 8.31591 3.4712C8.04136 3.18939 7.75432 2.8993 7.47145 2.63821C7.04297 2.21964 6.53962 2 6.00715 2C5.47884 2 4.97133 2.21964 4.52622 2.64235L2.9704 4.19229C2.40465 4.75591 2.08434 5.4397 2.01778 6.23125C1.93874 7.22172 2.12178 8.27435 2.59601 9.54662C3.324 11.5151 4.42222 13.3427 6.05291 15.2947ZM3.0328 6.31828C3.08272 5.76709 3.29488 5.30709 3.69423 4.90924L5.24172 3.36759C5.483 3.13552 5.74924 3.01533 6.00715 3.01533C6.26091 3.01533 6.51882 3.13552 6.75594 3.37588C7.03465 3.63282 7.29673 3.9022 7.5796 4.18815C7.72104 4.3332 7.86664 4.47824 8.01224 4.62743L9.25189 5.86241C9.50981 6.11935 9.64293 6.38044 9.64293 6.63738C9.64293 6.89432 9.50981 7.15541 9.25189 7.41235C9.12294 7.54082 8.99398 7.67344 8.86502 7.80191C8.47815 8.19146 8.11623 8.5603 7.71688 8.91256C7.70856 8.92085 7.7044 8.92499 7.69608 8.93328C7.35081 9.27725 7.40489 9.60464 7.48809 9.85329C7.49225 9.86573 7.49641 9.87402 7.50057 9.88645C7.82088 10.6531 8.26599 11.3825 8.9607 12.2528C10.2087 13.7862 11.5232 14.9755 12.9709 15.8914C13.1497 16.0075 13.3411 16.0986 13.52 16.1898C13.6864 16.2727 13.8403 16.3514 13.9776 16.4385C13.9942 16.4467 14.0067 16.455 14.0233 16.4633C14.1606 16.5338 14.2937 16.5669 14.4268 16.5669C14.7596 16.5669 14.976 16.3556 15.0467 16.2851L16.6025 14.7352C16.8438 14.4948 17.1058 14.3663 17.3638 14.3663C17.6799 14.3663 17.9378 14.5611 18.1001 14.7352L20.6085 17.23C21.1077 17.7273 21.1035 18.2661 20.596 18.7924C20.4213 18.9789 20.2383 19.1571 20.0427 19.3436C19.7516 19.6254 19.4479 19.9155 19.1733 20.2429C18.6949 20.7567 18.125 20.9971 17.3887 20.9971C17.318 20.9971 17.2431 20.993 17.1724 20.9888C15.8079 20.9018 14.5392 20.3713 13.5865 19.9196C10.9991 18.6722 8.72774 16.9026 6.8433 14.6564C5.29164 12.7957 4.2475 11.0634 3.55695 9.2068C3.12848 8.06714 2.96624 7.15126 3.0328 6.31828Z" fill="#212121"/>
</svg>
