<svg width="25" height="25" viewBox="0 0 25 25" fill="none" xmlns="http://www.w3.org/2000/svg">
<circle cx="12.5" cy="12.5" r="12.5" fill="#1DA1F3"/>
<path d="M18.8217 9.46854C18.4043 9.65354 17.9558 9.77854 17.4843 9.83504C17.9708 9.54393 18.3347 9.08577 18.5083 8.54604C18.0512 8.81753 17.5509 9.00864 17.0293 9.11104C16.6784 8.73647 16.2138 8.4882 15.7074 8.40478C15.201 8.32135 14.6813 8.40743 14.2289 8.64966C13.7764 8.8919 13.4166 9.27672 13.2053 9.74439C12.994 10.2121 12.943 10.7364 13.0602 11.236C12.1341 11.1895 11.2281 10.9488 10.401 10.5295C9.57386 10.1102 8.84417 9.52162 8.25925 8.80204C8.05925 9.14704 7.94425 9.54704 7.94425 9.97304C7.94403 10.3565 8.03847 10.7342 8.21919 11.0724C8.39991 11.4106 8.66133 11.6991 8.98025 11.912C8.61039 11.9003 8.24869 11.8003 7.92525 11.6205V11.6505C7.92521 12.1884 8.11127 12.7097 8.45184 13.126C8.79242 13.5423 9.26654 13.828 9.79375 13.9345C9.45064 14.0274 9.09092 14.0411 8.74175 13.9745C8.8905 14.4373 9.18025 14.8421 9.57043 15.132C9.96062 15.422 10.4317 15.5826 10.9178 15.5915C10.0927 16.2392 9.07369 16.5906 8.02475 16.589C7.83894 16.5891 7.65329 16.5782 7.46875 16.5565C8.53349 17.2411 9.77292 17.6044 11.0387 17.603C15.3237 17.603 17.6663 14.054 17.6663 10.976C17.6663 10.876 17.6638 10.775 17.6593 10.675C18.1149 10.3455 18.5082 9.93749 18.8208 9.47004L18.8217 9.46854Z" fill="white"/>
</svg>
